<?xml version="1.0" encoding="utf-8" standalone="no"?>
<!DOCTYPE svg PUBLIC "-//W3C//DTD SVG 1.1//EN"
  "http://www.w3.org/Graphics/SVG/1.1/DTD/svg11.dtd">
<svg xmlns:xlink="http://www.w3.org/1999/xlink" width="576pt" height="432pt" viewBox="0 0 576 432" xmlns="http://www.w3.org/2000/svg" version="1.1">
 <metadata>
  <rdf:RDF xmlns:dc="http://purl.org/dc/elements/1.1/" xmlns:cc="http://creativecommons.org/ns#" xmlns:rdf="http://www.w3.org/1999/02/22-rdf-syntax-ns#">
   <cc:Work>
    <dc:type rdf:resource="http://purl.org/dc/dcmitype/StillImage"/>
    <dc:date>2024-11-02T14:19:52.647589</dc:date>
    <dc:format>image/svg+xml</dc:format>
    <dc:creator>
     <cc:Agent>
      <dc:title>Matplotlib v3.9.2, https://matplotlib.org/</dc:title>
     </cc:Agent>
    </dc:creator>
   </cc:Work>
  </rdf:RDF>
 </metadata>
 <defs>
  <style type="text/css">*{stroke-linejoin: round; stroke-linecap: butt}</style>
 </defs>
 <g id="figure_1">
  <g id="patch_1">
   <path d="M 0 432 
L 576 432 
L 576 0 
L 0 0 
z
" style="fill: #ffffff"/>
  </g>
  <g id="axes_1">
   <g id="patch_2">
    <path d="M 72 384.48 
L 518.4 384.48 
L 518.4 51.84 
L 72 51.84 
z
" style="fill: #ffffff"/>
   </g>
   <g id="patch_3">
    <path d="M 92.290909 384.48 
L 102.188914 384.48 
L 102.188914 67.68 
L 92.290909 67.68 
z
" clip-path="url(#pa0a3138161)" style="fill: #1f77b4"/>
   </g>
   <g id="patch_4">
    <path d="M 104.663415 384.48 
L 114.561419 384.48 
L 114.561419 67.989375 
L 104.663415 67.989375 
z
" clip-path="url(#pa0a3138161)" style="fill: #1f77b4"/>
   </g>
   <g id="patch_5">
    <path d="M 117.03592 384.48 
L 126.933925 384.48 
L 126.933925 67.68 
L 117.03592 67.68 
z
" clip-path="url(#pa0a3138161)" style="fill: #1f77b4"/>
   </g>
   <g id="patch_6">
    <path d="M 129.408426 384.48 
L 139.30643 384.48 
L 139.30643 67.68 
L 129.408426 67.68 
z
" clip-path="url(#pa0a3138161)" style="fill: #1f77b4"/>
   </g>
   <g id="patch_7">
    <path d="M 141.780931 384.48 
L 151.678936 384.48 
L 151.678936 67.68 
L 141.780931 67.68 
z
" clip-path="url(#pa0a3138161)" style="fill: #1f77b4"/>
   </g>
   <g id="patch_8">
    <path d="M 154.153437 384.48 
L 164.051441 384.48 
L 164.051441 67.834688 
L 154.153437 67.834688 
z
" clip-path="url(#pa0a3138161)" style="fill: #1f77b4"/>
   </g>
   <g id="patch_9">
    <path d="M 166.525942 384.48 
L 176.423947 384.48 
L 176.423947 226.08 
L 166.525942 226.08 
z
" clip-path="url(#pa0a3138161)" style="fill: #1f77b4"/>
   </g>
   <g id="patch_10">
    <path d="M 178.898448 384.48 
L 188.796452 384.48 
L 188.796452 226.08 
L 178.898448 226.08 
z
" clip-path="url(#pa0a3138161)" style="fill: #1f77b4"/>
   </g>
   <g id="patch_11">
    <path d="M 191.270953 384.48 
L 201.168958 384.48 
L 201.168958 226.08 
L 191.270953 226.08 
z
" clip-path="url(#pa0a3138161)" style="fill: #1f77b4"/>
   </g>
   <g id="patch_12">
    <path d="M 203.643459 384.48 
L 213.541463 384.48 
L 213.541463 226.08 
L 203.643459 226.08 
z
" clip-path="url(#pa0a3138161)" style="fill: #1f77b4"/>
   </g>
   <g id="patch_13">
    <path d="M 216.015965 384.48 
L 225.913969 384.48 
L 225.913969 226.08 
L 216.015965 226.08 
z
" clip-path="url(#pa0a3138161)" style="fill: #1f77b4"/>
   </g>
   <g id="patch_14">
    <path d="M 228.38847 384.48 
L 238.286475 384.48 
L 238.286475 305.28 
L 228.38847 305.28 
z
" clip-path="url(#pa0a3138161)" style="fill: #1f77b4"/>
   </g>
   <g id="patch_15">
    <path d="M 240.760976 384.48 
L 250.65898 384.48 
L 250.65898 305.28 
L 240.760976 305.28 
z
" clip-path="url(#pa0a3138161)" style="fill: #1f77b4"/>
   </g>
   <g id="patch_16">
    <path d="M 253.133481 384.48 
L 263.031486 384.48 
L 263.031486 344.88 
L 253.133481 344.88 
z
" clip-path="url(#pa0a3138161)" style="fill: #1f77b4"/>
   </g>
   <g id="patch_17">
    <path d="M 265.505987 384.48 
L 275.403991 384.48 
L 275.403991 344.88 
L 265.505987 344.88 
z
" clip-path="url(#pa0a3138161)" style="fill: #1f77b4"/>
   </g>
   <g id="patch_18">
    <path d="M 277.878492 384.48 
L 287.776497 384.48 
L 287.776497 374.58 
L 277.878492 374.58 
z
" clip-path="url(#pa0a3138161)" style="fill: #1f77b4"/>
   </g>
   <g id="patch_19">
    <path d="M 290.250998 384.48 
L 300.149002 384.48 
L 300.149002 344.88 
L 290.250998 344.88 
z
" clip-path="url(#pa0a3138161)" style="fill: #1f77b4"/>
   </g>
   <g id="patch_20">
    <path d="M 302.623503 384.48 
L 312.521508 384.48 
L 312.521508 344.88 
L 302.623503 344.88 
z
" clip-path="url(#pa0a3138161)" style="fill: #1f77b4"/>
   </g>
   <g id="patch_21">
    <path d="M 314.996009 384.48 
L 324.894013 384.48 
L 324.894013 305.28 
L 314.996009 305.28 
z
" clip-path="url(#pa0a3138161)" style="fill: #1f77b4"/>
   </g>
   <g id="patch_22">
    <path d="M 327.368514 384.48 
L 337.266519 384.48 
L 337.266519 305.28 
L 327.368514 305.28 
z
" clip-path="url(#pa0a3138161)" style="fill: #1f77b4"/>
   </g>
   <g id="patch_23">
    <path d="M 339.74102 384.48 
L 349.639024 384.48 
L 349.639024 226.08 
L 339.74102 226.08 
z
" clip-path="url(#pa0a3138161)" style="fill: #1f77b4"/>
   </g>
   <g id="patch_24">
    <path d="M 352.113525 384.48 
L 362.01153 384.48 
L 362.01153 226.08 
L 352.113525 226.08 
z
" clip-path="url(#pa0a3138161)" style="fill: #1f77b4"/>
   </g>
   <g id="patch_25">
    <path d="M 364.486031 384.48 
L 374.384035 384.48 
L 374.384035 226.08 
L 364.486031 226.08 
z
" clip-path="url(#pa0a3138161)" style="fill: #1f77b4"/>
   </g>
   <g id="patch_26">
    <path d="M 376.858537 384.48 
L 386.756541 384.48 
L 386.756541 226.08 
L 376.858537 226.08 
z
" clip-path="url(#pa0a3138161)" style="fill: #1f77b4"/>
   </g>
   <g id="patch_27">
    <path d="M 389.231042 384.48 
L 399.129047 384.48 
L 399.129047 226.08 
L 389.231042 226.08 
z
" clip-path="url(#pa0a3138161)" style="fill: #1f77b4"/>
   </g>
   <g id="patch_28">
    <path d="M 401.603548 384.48 
L 411.501552 384.48 
L 411.501552 67.834688 
L 401.603548 67.834688 
z
" clip-path="url(#pa0a3138161)" style="fill: #1f77b4"/>
   </g>
   <g id="patch_29">
    <path d="M 413.976053 384.48 
L 423.874058 384.48 
L 423.874058 67.68 
L 413.976053 67.68 
z
" clip-path="url(#pa0a3138161)" style="fill: #1f77b4"/>
   </g>
   <g id="patch_30">
    <path d="M 426.348559 384.48 
L 436.246563 384.48 
L 436.246563 67.68 
L 426.348559 67.68 
z
" clip-path="url(#pa0a3138161)" style="fill: #1f77b4"/>
   </g>
   <g id="patch_31">
    <path d="M 438.721064 384.48 
L 448.619069 384.48 
L 448.619069 67.68 
L 438.721064 67.68 
z
" clip-path="url(#pa0a3138161)" style="fill: #1f77b4"/>
   </g>
   <g id="patch_32">
    <path d="M 451.09357 384.48 
L 460.991574 384.48 
L 460.991574 67.989375 
L 451.09357 67.989375 
z
" clip-path="url(#pa0a3138161)" style="fill: #1f77b4"/>
   </g>
   <g id="patch_33">
    <path d="M 463.466075 384.48 
L 473.36408 384.48 
L 473.36408 67.68 
L 463.466075 67.68 
z
" clip-path="url(#pa0a3138161)" style="fill: #1f77b4"/>
   </g>
   <g id="patch_34">
    <path d="M 475.838581 384.48 
L 485.736585 384.48 
L 485.736585 67.68 
L 475.838581 67.68 
z
" clip-path="url(#pa0a3138161)" style="fill: #1f77b4"/>
   </g>
   <g id="patch_35">
    <path d="M 488.211086 384.48 
L 498.109091 384.48 
L 498.109091 67.989375 
L 488.211086 67.989375 
z
" clip-path="url(#pa0a3138161)" style="fill: #1f77b4"/>
   </g>
   <g id="matplotlib.axis_1">
    <g id="xtick_1">
     <g id="line2d_1">
      <defs>
       <path id="m53e84293ad" d="M 0 0 
L 0 3.5 
" style="stroke: #000000; stroke-width: 0.8"/>
      </defs>
      <g>
       <use xlink:href="#m53e84293ad" x="109.612417" y="384.48" style="stroke: #000000; stroke-width: 0.8"/>
      </g>
     </g>
     <g id="text_1">
      <!-- −15 -->
      <g transform="translate(99.060073 399.078438) scale(0.1 -0.1)">
       <defs>
        <path id="DejaVuSans-2212" d="M 678 2272 
L 4684 2272 
L 4684 1741 
L 678 1741 
L 678 2272 
z
" transform="scale(0.015625)"/>
        <path id="DejaVuSans-31" d="M 794 531 
L 1825 531 
L 1825 4091 
L 703 3866 
L 703 4441 
L 1819 4666 
L 2450 4666 
L 2450 531 
L 3481 531 
L 3481 0 
L 794 0 
L 794 531 
z
" transform="scale(0.015625)"/>
        <path id="DejaVuSans-35" d="M 691 4666 
L 3169 4666 
L 3169 4134 
L 1269 4134 
L 1269 2991 
Q 1406 3038 1543 3061 
Q 1681 3084 1819 3084 
Q 2600 3084 3056 2656 
Q 3513 2228 3513 1497 
Q 3513 744 3044 326 
Q 2575 -91 1722 -91 
Q 1428 -91 1123 -41 
Q 819 9 494 109 
L 494 744 
Q 775 591 1075 516 
Q 1375 441 1709 441 
Q 2250 441 2565 725 
Q 2881 1009 2881 1497 
Q 2881 1984 2565 2268 
Q 2250 2553 1709 2553 
Q 1456 2553 1204 2497 
Q 953 2441 691 2322 
L 691 4666 
z
" transform="scale(0.015625)"/>
       </defs>
       <use xlink:href="#DejaVuSans-2212"/>
       <use xlink:href="#DejaVuSans-31" x="83.789062"/>
       <use xlink:href="#DejaVuSans-35" x="147.412109"/>
      </g>
     </g>
    </g>
    <g id="xtick_2">
     <g id="line2d_2">
      <g>
       <use xlink:href="#m53e84293ad" x="171.474945" y="384.48" style="stroke: #000000; stroke-width: 0.8"/>
      </g>
     </g>
     <g id="text_2">
      <!-- −10 -->
      <g transform="translate(160.922601 399.078438) scale(0.1 -0.1)">
       <defs>
        <path id="DejaVuSans-30" d="M 2034 4250 
Q 1547 4250 1301 3770 
Q 1056 3291 1056 2328 
Q 1056 1369 1301 889 
Q 1547 409 2034 409 
Q 2525 409 2770 889 
Q 3016 1369 3016 2328 
Q 3016 3291 2770 3770 
Q 2525 4250 2034 4250 
z
M 2034 4750 
Q 2819 4750 3233 4129 
Q 3647 3509 3647 2328 
Q 3647 1150 3233 529 
Q 2819 -91 2034 -91 
Q 1250 -91 836 529 
Q 422 1150 422 2328 
Q 422 3509 836 4129 
Q 1250 4750 2034 4750 
z
" transform="scale(0.015625)"/>
       </defs>
       <use xlink:href="#DejaVuSans-2212"/>
       <use xlink:href="#DejaVuSans-31" x="83.789062"/>
       <use xlink:href="#DejaVuSans-30" x="147.412109"/>
      </g>
     </g>
    </g>
    <g id="xtick_3">
     <g id="line2d_3">
      <g>
       <use xlink:href="#m53e84293ad" x="233.337472" y="384.48" style="stroke: #000000; stroke-width: 0.8"/>
      </g>
     </g>
     <g id="text_3">
      <!-- −5 -->
      <g transform="translate(225.966379 399.078438) scale(0.1 -0.1)">
       <use xlink:href="#DejaVuSans-2212"/>
       <use xlink:href="#DejaVuSans-35" x="83.789062"/>
      </g>
     </g>
    </g>
    <g id="xtick_4">
     <g id="line2d_4">
      <g>
       <use xlink:href="#m53e84293ad" x="295.2" y="384.48" style="stroke: #000000; stroke-width: 0.8"/>
      </g>
     </g>
     <g id="text_4">
      <!-- 0 -->
      <g transform="translate(292.01875 399.078438) scale(0.1 -0.1)">
       <use xlink:href="#DejaVuSans-30"/>
      </g>
     </g>
    </g>
    <g id="xtick_5">
     <g id="line2d_5">
      <g>
       <use xlink:href="#m53e84293ad" x="357.062528" y="384.48" style="stroke: #000000; stroke-width: 0.8"/>
      </g>
     </g>
     <g id="text_5">
      <!-- 5 -->
      <g transform="translate(353.881278 399.078438) scale(0.1 -0.1)">
       <use xlink:href="#DejaVuSans-35"/>
      </g>
     </g>
    </g>
    <g id="xtick_6">
     <g id="line2d_6">
      <g>
       <use xlink:href="#m53e84293ad" x="418.925055" y="384.48" style="stroke: #000000; stroke-width: 0.8"/>
      </g>
     </g>
     <g id="text_6">
      <!-- 10 -->
      <g transform="translate(412.562555 399.078438) scale(0.1 -0.1)">
       <use xlink:href="#DejaVuSans-31"/>
       <use xlink:href="#DejaVuSans-30" x="63.623047"/>
      </g>
     </g>
    </g>
    <g id="xtick_7">
     <g id="line2d_7">
      <g>
       <use xlink:href="#m53e84293ad" x="480.787583" y="384.48" style="stroke: #000000; stroke-width: 0.8"/>
      </g>
     </g>
     <g id="text_7">
      <!-- 15 -->
      <g transform="translate(474.425083 399.078438) scale(0.1 -0.1)">
       <use xlink:href="#DejaVuSans-31"/>
       <use xlink:href="#DejaVuSans-35" x="63.623047"/>
      </g>
     </g>
    </g>
    <g id="text_8">
     <!-- input range ($x - 0.5$ to $x + 0.5$) -->
     <g transform="translate(218.4 412.758125) scale(0.1 -0.1)">
      <defs>
       <path id="DejaVuSans-69" d="M 603 3500 
L 1178 3500 
L 1178 0 
L 603 0 
L 603 3500 
z
M 603 4863 
L 1178 4863 
L 1178 4134 
L 603 4134 
L 603 4863 
z
" transform="scale(0.015625)"/>
       <path id="DejaVuSans-6e" d="M 3513 2113 
L 3513 0 
L 2938 0 
L 2938 2094 
Q 2938 2591 2744 2837 
Q 2550 3084 2163 3084 
Q 1697 3084 1428 2787 
Q 1159 2491 1159 1978 
L 1159 0 
L 581 0 
L 581 3500 
L 1159 3500 
L 1159 2956 
Q 1366 3272 1645 3428 
Q 1925 3584 2291 3584 
Q 2894 3584 3203 3211 
Q 3513 2838 3513 2113 
z
" transform="scale(0.015625)"/>
       <path id="DejaVuSans-70" d="M 1159 525 
L 1159 -1331 
L 581 -1331 
L 581 3500 
L 1159 3500 
L 1159 2969 
Q 1341 3281 1617 3432 
Q 1894 3584 2278 3584 
Q 2916 3584 3314 3078 
Q 3713 2572 3713 1747 
Q 3713 922 3314 415 
Q 2916 -91 2278 -91 
Q 1894 -91 1617 61 
Q 1341 213 1159 525 
z
M 3116 1747 
Q 3116 2381 2855 2742 
Q 2594 3103 2138 3103 
Q 1681 3103 1420 2742 
Q 1159 2381 1159 1747 
Q 1159 1113 1420 752 
Q 1681 391 2138 391 
Q 2594 391 2855 752 
Q 3116 1113 3116 1747 
z
" transform="scale(0.015625)"/>
       <path id="DejaVuSans-75" d="M 544 1381 
L 544 3500 
L 1119 3500 
L 1119 1403 
Q 1119 906 1312 657 
Q 1506 409 1894 409 
Q 2359 409 2629 706 
Q 2900 1003 2900 1516 
L 2900 3500 
L 3475 3500 
L 3475 0 
L 2900 0 
L 2900 538 
Q 2691 219 2414 64 
Q 2138 -91 1772 -91 
Q 1169 -91 856 284 
Q 544 659 544 1381 
z
M 1991 3584 
L 1991 3584 
z
" transform="scale(0.015625)"/>
       <path id="DejaVuSans-74" d="M 1172 4494 
L 1172 3500 
L 2356 3500 
L 2356 3053 
L 1172 3053 
L 1172 1153 
Q 1172 725 1289 603 
Q 1406 481 1766 481 
L 2356 481 
L 2356 0 
L 1766 0 
Q 1100 0 847 248 
Q 594 497 594 1153 
L 594 3053 
L 172 3053 
L 172 3500 
L 594 3500 
L 594 4494 
L 1172 4494 
z
" transform="scale(0.015625)"/>
       <path id="DejaVuSans-20" transform="scale(0.015625)"/>
       <path id="DejaVuSans-72" d="M 2631 2963 
Q 2534 3019 2420 3045 
Q 2306 3072 2169 3072 
Q 1681 3072 1420 2755 
Q 1159 2438 1159 1844 
L 1159 0 
L 581 0 
L 581 3500 
L 1159 3500 
L 1159 2956 
Q 1341 3275 1631 3429 
Q 1922 3584 2338 3584 
Q 2397 3584 2469 3576 
Q 2541 3569 2628 3553 
L 2631 2963 
z
" transform="scale(0.015625)"/>
       <path id="DejaVuSans-61" d="M 2194 1759 
Q 1497 1759 1228 1600 
Q 959 1441 959 1056 
Q 959 750 1161 570 
Q 1363 391 1709 391 
Q 2188 391 2477 730 
Q 2766 1069 2766 1631 
L 2766 1759 
L 2194 1759 
z
M 3341 1997 
L 3341 0 
L 2766 0 
L 2766 531 
Q 2569 213 2275 61 
Q 1981 -91 1556 -91 
Q 1019 -91 701 211 
Q 384 513 384 1019 
Q 384 1609 779 1909 
Q 1175 2209 1959 2209 
L 2766 2209 
L 2766 2266 
Q 2766 2663 2505 2880 
Q 2244 3097 1772 3097 
Q 1472 3097 1187 3025 
Q 903 2953 641 2809 
L 641 3341 
Q 956 3463 1253 3523 
Q 1550 3584 1831 3584 
Q 2591 3584 2966 3190 
Q 3341 2797 3341 1997 
z
" transform="scale(0.015625)"/>
       <path id="DejaVuSans-67" d="M 2906 1791 
Q 2906 2416 2648 2759 
Q 2391 3103 1925 3103 
Q 1463 3103 1205 2759 
Q 947 2416 947 1791 
Q 947 1169 1205 825 
Q 1463 481 1925 481 
Q 2391 481 2648 825 
Q 2906 1169 2906 1791 
z
M 3481 434 
Q 3481 -459 3084 -895 
Q 2688 -1331 1869 -1331 
Q 1566 -1331 1297 -1286 
Q 1028 -1241 775 -1147 
L 775 -588 
Q 1028 -725 1275 -790 
Q 1522 -856 1778 -856 
Q 2344 -856 2625 -561 
Q 2906 -266 2906 331 
L 2906 616 
Q 2728 306 2450 153 
Q 2172 0 1784 0 
Q 1141 0 747 490 
Q 353 981 353 1791 
Q 353 2603 747 3093 
Q 1141 3584 1784 3584 
Q 2172 3584 2450 3431 
Q 2728 3278 2906 2969 
L 2906 3500 
L 3481 3500 
L 3481 434 
z
" transform="scale(0.015625)"/>
       <path id="DejaVuSans-65" d="M 3597 1894 
L 3597 1613 
L 953 1613 
Q 991 1019 1311 708 
Q 1631 397 2203 397 
Q 2534 397 2845 478 
Q 3156 559 3463 722 
L 3463 178 
Q 3153 47 2828 -22 
Q 2503 -91 2169 -91 
Q 1331 -91 842 396 
Q 353 884 353 1716 
Q 353 2575 817 3079 
Q 1281 3584 2069 3584 
Q 2775 3584 3186 3129 
Q 3597 2675 3597 1894 
z
M 3022 2063 
Q 3016 2534 2758 2815 
Q 2500 3097 2075 3097 
Q 1594 3097 1305 2825 
Q 1016 2553 972 2059 
L 3022 2063 
z
" transform="scale(0.015625)"/>
       <path id="DejaVuSans-28" d="M 1984 4856 
Q 1566 4138 1362 3434 
Q 1159 2731 1159 2009 
Q 1159 1288 1364 580 
Q 1569 -128 1984 -844 
L 1484 -844 
Q 1016 -109 783 600 
Q 550 1309 550 2009 
Q 550 2706 781 3412 
Q 1013 4119 1484 4856 
L 1984 4856 
z
" transform="scale(0.015625)"/>
       <path id="DejaVuSans-Oblique-78" d="M 3841 3500 
L 2234 1784 
L 3219 0 
L 2559 0 
L 1819 1388 
L 531 0 
L -166 0 
L 1556 1844 
L 641 3500 
L 1300 3500 
L 1972 2234 
L 3144 3500 
L 3841 3500 
z
" transform="scale(0.015625)"/>
       <path id="DejaVuSans-2e" d="M 684 794 
L 1344 794 
L 1344 0 
L 684 0 
L 684 794 
z
" transform="scale(0.015625)"/>
       <path id="DejaVuSans-6f" d="M 1959 3097 
Q 1497 3097 1228 2736 
Q 959 2375 959 1747 
Q 959 1119 1226 758 
Q 1494 397 1959 397 
Q 2419 397 2687 759 
Q 2956 1122 2956 1747 
Q 2956 2369 2687 2733 
Q 2419 3097 1959 3097 
z
M 1959 3584 
Q 2709 3584 3137 3096 
Q 3566 2609 3566 1747 
Q 3566 888 3137 398 
Q 2709 -91 1959 -91 
Q 1206 -91 779 398 
Q 353 888 353 1747 
Q 353 2609 779 3096 
Q 1206 3584 1959 3584 
z
" transform="scale(0.015625)"/>
       <path id="DejaVuSans-2b" d="M 2944 4013 
L 2944 2272 
L 4684 2272 
L 4684 1741 
L 2944 1741 
L 2944 0 
L 2419 0 
L 2419 1741 
L 678 1741 
L 678 2272 
L 2419 2272 
L 2419 4013 
L 2944 4013 
z
" transform="scale(0.015625)"/>
       <path id="DejaVuSans-29" d="M 513 4856 
L 1013 4856 
Q 1481 4119 1714 3412 
Q 1947 2706 1947 2009 
Q 1947 1309 1714 600 
Q 1481 -109 1013 -844 
L 513 -844 
Q 928 -128 1133 580 
Q 1338 1288 1338 2009 
Q 1338 2731 1133 3434 
Q 928 4138 513 4856 
z
" transform="scale(0.015625)"/>
      </defs>
      <use xlink:href="#DejaVuSans-69" transform="translate(0 0.015625)"/>
      <use xlink:href="#DejaVuSans-6e" transform="translate(27.783203 0.015625)"/>
      <use xlink:href="#DejaVuSans-70" transform="translate(91.162109 0.015625)"/>
      <use xlink:href="#DejaVuSans-75" transform="translate(154.638672 0.015625)"/>
      <use xlink:href="#DejaVuSans-74" transform="translate(218.017578 0.015625)"/>
      <use xlink:href="#DejaVuSans-20" transform="translate(257.226562 0.015625)"/>
      <use xlink:href="#DejaVuSans-72" transform="translate(289.013672 0.015625)"/>
      <use xlink:href="#DejaVuSans-61" transform="translate(330.126953 0.015625)"/>
      <use xlink:href="#DejaVuSans-6e" transform="translate(391.40625 0.015625)"/>
      <use xlink:href="#DejaVuSans-67" transform="translate(454.785156 0.015625)"/>
      <use xlink:href="#DejaVuSans-65" transform="translate(518.261719 0.015625)"/>
      <use xlink:href="#DejaVuSans-20" transform="translate(579.785156 0.015625)"/>
      <use xlink:href="#DejaVuSans-28" transform="translate(611.572266 0.015625)"/>
      <use xlink:href="#DejaVuSans-Oblique-78" transform="translate(650.585938 0.015625)"/>
      <use xlink:href="#DejaVuSans-2212" transform="translate(729.248047 0.015625)"/>
      <use xlink:href="#DejaVuSans-30" transform="translate(832.519531 0.015625)"/>
      <use xlink:href="#DejaVuSans-2e" transform="translate(896.142578 0.015625)"/>
      <use xlink:href="#DejaVuSans-35" transform="translate(927.929688 0.015625)"/>
      <use xlink:href="#DejaVuSans-20" transform="translate(991.552734 0.015625)"/>
      <use xlink:href="#DejaVuSans-74" transform="translate(1023.339844 0.015625)"/>
      <use xlink:href="#DejaVuSans-6f" transform="translate(1062.548828 0.015625)"/>
      <use xlink:href="#DejaVuSans-20" transform="translate(1123.730469 0.015625)"/>
      <use xlink:href="#DejaVuSans-Oblique-78" transform="translate(1155.517578 0.015625)"/>
      <use xlink:href="#DejaVuSans-2b" transform="translate(1234.179688 0.015625)"/>
      <use xlink:href="#DejaVuSans-30" transform="translate(1337.451172 0.015625)"/>
      <use xlink:href="#DejaVuSans-2e" transform="translate(1401.074219 0.015625)"/>
      <use xlink:href="#DejaVuSans-35" transform="translate(1432.861328 0.015625)"/>
      <use xlink:href="#DejaVuSans-29" transform="translate(1496.484375 0.015625)"/>
     </g>
    </g>
   </g>
   <g id="matplotlib.axis_2">
    <g id="ytick_1">
     <g id="line2d_8">
      <defs>
       <path id="m569c2b13ab" d="M 0 0 
L -3.5 0 
" style="stroke: #000000; stroke-width: 0.8"/>
      </defs>
      <g>
       <use xlink:href="#m569c2b13ab" x="72" y="384.48" style="stroke: #000000; stroke-width: 0.8"/>
      </g>
     </g>
     <g id="text_9">
      <!-- 0 -->
      <g transform="translate(58.6375 388.279219) scale(0.1 -0.1)">
       <use xlink:href="#DejaVuSans-30"/>
      </g>
     </g>
    </g>
    <g id="ytick_2">
     <g id="line2d_9">
      <g>
       <use xlink:href="#m569c2b13ab" x="72" y="334.98" style="stroke: #000000; stroke-width: 0.8"/>
      </g>
     </g>
     <g id="text_10">
      <!-- 5 -->
      <g transform="translate(58.6375 338.779219) scale(0.1 -0.1)">
       <use xlink:href="#DejaVuSans-35"/>
      </g>
     </g>
    </g>
    <g id="ytick_3">
     <g id="line2d_10">
      <g>
       <use xlink:href="#m569c2b13ab" x="72" y="285.48" style="stroke: #000000; stroke-width: 0.8"/>
      </g>
     </g>
     <g id="text_11">
      <!-- 10 -->
      <g transform="translate(52.275 289.279219) scale(0.1 -0.1)">
       <use xlink:href="#DejaVuSans-31"/>
       <use xlink:href="#DejaVuSans-30" x="63.623047"/>
      </g>
     </g>
    </g>
    <g id="ytick_4">
     <g id="line2d_11">
      <g>
       <use xlink:href="#m569c2b13ab" x="72" y="235.98" style="stroke: #000000; stroke-width: 0.8"/>
      </g>
     </g>
     <g id="text_12">
      <!-- 15 -->
      <g transform="translate(52.275 239.779219) scale(0.1 -0.1)">
       <use xlink:href="#DejaVuSans-31"/>
       <use xlink:href="#DejaVuSans-35" x="63.623047"/>
      </g>
     </g>
    </g>
    <g id="ytick_5">
     <g id="line2d_12">
      <g>
       <use xlink:href="#m569c2b13ab" x="72" y="186.48" style="stroke: #000000; stroke-width: 0.8"/>
      </g>
     </g>
     <g id="text_13">
      <!-- 20 -->
      <g transform="translate(52.275 190.279219) scale(0.1 -0.1)">
       <defs>
        <path id="DejaVuSans-32" d="M 1228 531 
L 3431 531 
L 3431 0 
L 469 0 
L 469 531 
Q 828 903 1448 1529 
Q 2069 2156 2228 2338 
Q 2531 2678 2651 2914 
Q 2772 3150 2772 3378 
Q 2772 3750 2511 3984 
Q 2250 4219 1831 4219 
Q 1534 4219 1204 4116 
Q 875 4013 500 3803 
L 500 4441 
Q 881 4594 1212 4672 
Q 1544 4750 1819 4750 
Q 2544 4750 2975 4387 
Q 3406 4025 3406 3419 
Q 3406 3131 3298 2873 
Q 3191 2616 2906 2266 
Q 2828 2175 2409 1742 
Q 1991 1309 1228 531 
z
" transform="scale(0.015625)"/>
       </defs>
       <use xlink:href="#DejaVuSans-32"/>
       <use xlink:href="#DejaVuSans-30" x="63.623047"/>
      </g>
     </g>
    </g>
    <g id="ytick_6">
     <g id="line2d_13">
      <g>
       <use xlink:href="#m569c2b13ab" x="72" y="136.98" style="stroke: #000000; stroke-width: 0.8"/>
      </g>
     </g>
     <g id="text_14">
      <!-- 25 -->
      <g transform="translate(52.275 140.779219) scale(0.1 -0.1)">
       <use xlink:href="#DejaVuSans-32"/>
       <use xlink:href="#DejaVuSans-35" x="63.623047"/>
      </g>
     </g>
    </g>
    <g id="ytick_7">
     <g id="line2d_14">
      <g>
       <use xlink:href="#m569c2b13ab" x="72" y="87.48" style="stroke: #000000; stroke-width: 0.8"/>
      </g>
     </g>
     <g id="text_15">
      <!-- 30 -->
      <g transform="translate(52.275 91.279219) scale(0.1 -0.1)">
       <defs>
        <path id="DejaVuSans-33" d="M 2597 2516 
Q 3050 2419 3304 2112 
Q 3559 1806 3559 1356 
Q 3559 666 3084 287 
Q 2609 -91 1734 -91 
Q 1441 -91 1130 -33 
Q 819 25 488 141 
L 488 750 
Q 750 597 1062 519 
Q 1375 441 1716 441 
Q 2309 441 2620 675 
Q 2931 909 2931 1356 
Q 2931 1769 2642 2001 
Q 2353 2234 1838 2234 
L 1294 2234 
L 1294 2753 
L 1863 2753 
Q 2328 2753 2575 2939 
Q 2822 3125 2822 3475 
Q 2822 3834 2567 4026 
Q 2313 4219 1838 4219 
Q 1578 4219 1281 4162 
Q 984 4106 628 3988 
L 628 4550 
Q 988 4650 1302 4700 
Q 1616 4750 1894 4750 
Q 2613 4750 3031 4423 
Q 3450 4097 3450 3541 
Q 3450 3153 3228 2886 
Q 3006 2619 2597 2516 
z
" transform="scale(0.015625)"/>
       </defs>
       <use xlink:href="#DejaVuSans-33"/>
       <use xlink:href="#DejaVuSans-30" x="63.623047"/>
      </g>
     </g>
    </g>
    <g id="text_16">
     <!-- maximum error (f32 ULP) -->
     <g transform="translate(46.195312 281.706094) rotate(-90) scale(0.1 -0.1)">
      <defs>
       <path id="DejaVuSans-6d" d="M 3328 2828 
Q 3544 3216 3844 3400 
Q 4144 3584 4550 3584 
Q 5097 3584 5394 3201 
Q 5691 2819 5691 2113 
L 5691 0 
L 5113 0 
L 5113 2094 
Q 5113 2597 4934 2840 
Q 4756 3084 4391 3084 
Q 3944 3084 3684 2787 
Q 3425 2491 3425 1978 
L 3425 0 
L 2847 0 
L 2847 2094 
Q 2847 2600 2669 2842 
Q 2491 3084 2119 3084 
Q 1678 3084 1418 2786 
Q 1159 2488 1159 1978 
L 1159 0 
L 581 0 
L 581 3500 
L 1159 3500 
L 1159 2956 
Q 1356 3278 1631 3431 
Q 1906 3584 2284 3584 
Q 2666 3584 2933 3390 
Q 3200 3197 3328 2828 
z
" transform="scale(0.015625)"/>
       <path id="DejaVuSans-78" d="M 3513 3500 
L 2247 1797 
L 3578 0 
L 2900 0 
L 1881 1375 
L 863 0 
L 184 0 
L 1544 1831 
L 300 3500 
L 978 3500 
L 1906 2253 
L 2834 3500 
L 3513 3500 
z
" transform="scale(0.015625)"/>
       <path id="DejaVuSans-66" d="M 2375 4863 
L 2375 4384 
L 1825 4384 
Q 1516 4384 1395 4259 
Q 1275 4134 1275 3809 
L 1275 3500 
L 2222 3500 
L 2222 3053 
L 1275 3053 
L 1275 0 
L 697 0 
L 697 3053 
L 147 3053 
L 147 3500 
L 697 3500 
L 697 3744 
Q 697 4328 969 4595 
Q 1241 4863 1831 4863 
L 2375 4863 
z
" transform="scale(0.015625)"/>
       <path id="DejaVuSans-55" d="M 556 4666 
L 1191 4666 
L 1191 1831 
Q 1191 1081 1462 751 
Q 1734 422 2344 422 
Q 2950 422 3222 751 
Q 3494 1081 3494 1831 
L 3494 4666 
L 4128 4666 
L 4128 1753 
Q 4128 841 3676 375 
Q 3225 -91 2344 -91 
Q 1459 -91 1007 375 
Q 556 841 556 1753 
L 556 4666 
z
" transform="scale(0.015625)"/>
       <path id="DejaVuSans-4c" d="M 628 4666 
L 1259 4666 
L 1259 531 
L 3531 531 
L 3531 0 
L 628 0 
L 628 4666 
z
" transform="scale(0.015625)"/>
       <path id="DejaVuSans-50" d="M 1259 4147 
L 1259 2394 
L 2053 2394 
Q 2494 2394 2734 2622 
Q 2975 2850 2975 3272 
Q 2975 3691 2734 3919 
Q 2494 4147 2053 4147 
L 1259 4147 
z
M 628 4666 
L 2053 4666 
Q 2838 4666 3239 4311 
Q 3641 3956 3641 3272 
Q 3641 2581 3239 2228 
Q 2838 1875 2053 1875 
L 1259 1875 
L 1259 0 
L 628 0 
L 628 4666 
z
" transform="scale(0.015625)"/>
      </defs>
      <use xlink:href="#DejaVuSans-6d"/>
      <use xlink:href="#DejaVuSans-61" x="97.412109"/>
      <use xlink:href="#DejaVuSans-78" x="158.691406"/>
      <use xlink:href="#DejaVuSans-69" x="217.871094"/>
      <use xlink:href="#DejaVuSans-6d" x="245.654297"/>
      <use xlink:href="#DejaVuSans-75" x="343.066406"/>
      <use xlink:href="#DejaVuSans-6d" x="406.445312"/>
      <use xlink:href="#DejaVuSans-20" x="503.857422"/>
      <use xlink:href="#DejaVuSans-65" x="535.644531"/>
      <use xlink:href="#DejaVuSans-72" x="597.167969"/>
      <use xlink:href="#DejaVuSans-72" x="636.53125"/>
      <use xlink:href="#DejaVuSans-6f" x="675.394531"/>
      <use xlink:href="#DejaVuSans-72" x="736.576172"/>
      <use xlink:href="#DejaVuSans-20" x="777.689453"/>
      <use xlink:href="#DejaVuSans-28" x="809.476562"/>
      <use xlink:href="#DejaVuSans-66" x="848.490234"/>
      <use xlink:href="#DejaVuSans-33" x="883.695312"/>
      <use xlink:href="#DejaVuSans-32" x="947.318359"/>
      <use xlink:href="#DejaVuSans-20" x="1010.941406"/>
      <use xlink:href="#DejaVuSans-55" x="1042.728516"/>
      <use xlink:href="#DejaVuSans-4c" x="1115.921875"/>
      <use xlink:href="#DejaVuSans-50" x="1171.634766"/>
      <use xlink:href="#DejaVuSans-29" x="1231.9375"/>
     </g>
    </g>
   </g>
   <g id="patch_36">
    <path d="M 72 384.48 
L 72 51.84 
" style="fill: none; stroke: #000000; stroke-width: 0.8; stroke-linejoin: miter; stroke-linecap: square"/>
   </g>
   <g id="patch_37">
    <path d="M 518.4 384.48 
L 518.4 51.84 
" style="fill: none; stroke: #000000; stroke-width: 0.8; stroke-linejoin: miter; stroke-linecap: square"/>
   </g>
   <g id="patch_38">
    <path d="M 72 384.48 
L 518.4 384.48 
" style="fill: none; stroke: #000000; stroke-width: 0.8; stroke-linejoin: miter; stroke-linecap: square"/>
   </g>
   <g id="patch_39">
    <path d="M 72 51.84 
L 518.4 51.84 
" style="fill: none; stroke: #000000; stroke-width: 0.8; stroke-linejoin: miter; stroke-linecap: square"/>
   </g>
  </g>
 </g>
 <defs>
  <clipPath id="pa0a3138161">
   <rect x="72" y="51.84" width="446.4" height="332.64"/>
  </clipPath>
 </defs>
</svg>
